<?xml version="1.0" encoding="UTF-8"?>
<!DOCTYPE svg PUBLIC "-//W3C//DTD SVG 1.1//EN" "http://www.w3.org/Graphics/SVG/1.1/DTD/svg11.dtd">
<svg xmlns="http://www.w3.org/2000/svg" version="1.1" width="1602px" height="1742px" style="shape-rendering:geometricPrecision; text-rendering:geometricPrecision; image-rendering:optimizeQuality; fill-rule:evenodd; clip-rule:evenodd" xmlns:xlink="http://www.w3.org/1999/xlink">
<g><path style="opacity:0.18" fill="#fdfeff" d="M 1039.5,378.5 C 871.5,378.5 703.5,378.5 535.5,378.5C 539.465,377.411 543.132,375.578 546.5,373C 550.863,372.71 555.196,372.21 559.5,371.5C 601.102,371.033 642.769,372.033 684.5,374.5C 709.015,373.62 733.515,373.287 758,373.5C 773.828,374.144 789.662,374.644 805.5,375C 806.872,375.402 808.205,375.902 809.5,376.5C 856.126,375.672 902.792,375.172 949.5,375C 951.5,374.5 953.5,374 955.5,373.5C 960.833,374.833 966.167,374.833 971.5,373.5C 973.833,374.167 976.167,374.833 978.5,375.5C 982.744,373.531 987.078,372.864 991.5,373.5C 999.582,375.034 1007.75,376.034 1016,376.5C 1021.23,374.993 1026.56,373.993 1032,373.5C 1034.91,374.58 1037.41,376.247 1039.5,378.5 Z"/></g>
<g><path style="opacity:0.408" fill="#3f3f93" d="M 535.5,378.5 C 703.5,378.5 871.5,378.5 1039.5,378.5C 1040.79,378.263 1041.79,378.596 1042.5,379.5C 873.5,379.5 704.5,379.5 535.5,379.5C 535.833,491.668 535.5,603.668 534.5,715.5C 534.5,603.5 534.5,491.5 534.5,379.5C 534.5,378.833 534.833,378.5 535.5,378.5 Z"/></g>
<g><path style="opacity:0.466" fill="#e8eefa" d="M 1044.5,380.5 C 1045.17,380.5 1045.5,380.833 1045.5,381.5C 1045.33,489.167 1045.5,596.834 1046,704.5C 1046.72,705.044 1047.22,705.711 1047.5,706.5C 1046.5,706.586 1045.67,706.252 1045,705.5C 1044.5,597.167 1044.33,488.834 1044.5,380.5 Z"/></g>
<g><path style="opacity:1" fill="#fefdfd" d="M 1026.5,714.5 C 1027.5,715.167 1028.5,715.833 1029.5,716.5C 1031.23,718.226 1033.23,719.559 1035.5,720.5C 1094.5,763.168 1153.5,805.835 1212.5,848.5C 1156.1,890.245 1099.43,931.578 1042.5,972.5C 1041.17,973.5 1039.83,974.5 1038.5,975.5C 1034.62,977.934 1030.95,980.601 1027.5,983.5C 1027.17,983.5 1026.83,983.5 1026.5,983.5C 1025.5,1090.67 1025.17,1198 1025.5,1305.5C 868.167,1305.5 710.833,1305.5 553.5,1305.5C 554.165,1191.5 553.498,1077.83 551.5,964.5C 501.871,924.872 452.538,884.872 403.5,844.5C 452.308,804.596 501.308,764.929 550.5,725.5C 551.496,725.586 552.329,725.252 553,724.5C 553.5,616.167 553.667,507.834 553.5,399.5C 710.496,397.501 867.83,396.835 1025.5,397.5C 1025.17,503.335 1025.5,609.001 1026.5,714.5 Z"/></g>
<g><path style="opacity:1" fill="#e6222a" d="M 951.5,423.5 C 966.833,423.5 982.167,423.5 997.5,423.5C 997.5,441.5 997.5,459.5 997.5,477.5C 995.217,477.608 993.217,478.441 991.5,480C 974.958,493.381 958.292,506.547 941.5,519.5C 845.857,592.481 750.524,665.815 655.5,739.5C 652.527,741.147 649.86,743.147 647.5,745.5C 646.504,745.414 645.671,745.748 645,746.5C 644.5,756.161 644.334,765.828 644.5,775.5C 643.274,833.165 643.274,890.832 644.5,948.5C 647.542,951.345 650.875,953.679 654.5,955.5C 750.934,1029.6 847.934,1102.94 945.5,1175.5C 962.319,1189.07 979.319,1202.41 996.5,1215.5C 996.5,1232.83 996.5,1250.17 996.5,1267.5C 957.33,1267.17 918.33,1267.5 879.5,1268.5C 810.164,1268.41 740.831,1268.75 671.5,1269.5C 643.5,1269.5 615.5,1269.5 587.5,1269.5C 587.5,1251.5 587.5,1233.5 587.5,1215.5C 588.1,1130.83 588.6,1046.16 589,961.5C 541.998,923.993 495.164,886.326 448.5,848.5C 493.895,813.1 539.562,778.1 585.5,743.5C 587.017,743.489 588.184,742.823 589,741.5C 589.317,743.301 589.984,743.634 591,742.5C 591.5,638.167 591.667,533.834 591.5,429.5C 687.5,429.167 687.5,428.833 591.5,428.5C 591.5,427.5 591.5,426.5 591.5,425.5C 700.834,425.667 810.167,425.5 919.5,425C 930.341,424.83 941.008,424.33 951.5,423.5 Z"/></g>
<g><path style="opacity:1" fill="#e7373c" d="M 951.5,423.5 C 941.008,424.33 930.341,424.83 919.5,425C 810.167,425.5 700.834,425.667 591.5,425.5C 591.5,426.5 591.5,427.5 591.5,428.5C 687.5,428.833 687.5,429.167 591.5,429.5C 591.667,533.834 591.5,638.167 591,742.5C 589.984,743.634 589.317,743.301 589,741.5C 588.184,742.823 587.017,743.489 585.5,743.5C 586.508,741.661 588.008,740.328 590,739.5C 590.5,634.167 590.667,528.834 590.5,423.5C 710.833,423.5 831.167,423.5 951.5,423.5 Z"/></g>
<g><path style="opacity:1" fill="#e6222a" d="M 1041.5,748.5 C 1076.49,777.487 1111.15,806.821 1145.5,836.5C 1096.83,837.167 1048.17,837.833 999.5,838.5C 999.5,845.167 999.5,851.833 999.5,858.5C 1048.17,859.167 1096.83,859.833 1145.5,860.5C 1112.02,887.469 1078.35,914.303 1044.5,941C 1029.5,941.5 1014.5,941.667 999.5,941.5C 999.5,1015.17 999.5,1088.83 999.5,1162.5C 979.757,1162.82 960.091,1162.49 940.5,1161.5C 847.5,1089.18 754.167,1017.18 660.5,945.5C 659.828,944.733 658.995,944.066 658,943.5C 657.5,930.838 657.333,918.171 657.5,905.5C 752.833,905.5 848.167,905.5 943.5,905.5C 943.5,895.167 943.5,884.833 943.5,874.5C 848.5,874.5 753.5,874.5 658.5,874.5C 658.5,869.5 658.5,864.5 658.5,859.5C 753.5,859.5 848.5,859.5 943.5,859.5C 943.5,852.5 943.5,845.5 943.5,838.5C 848.668,837.501 753.668,837.167 658.5,837.5C 658.5,830.833 658.5,824.167 658.5,817.5C 753.5,817.5 848.5,817.5 943.5,817.5C 943.828,806.986 943.494,796.653 942.5,786.5C 848.001,785.501 753.335,785.167 658.5,785.5C 658.5,773.167 658.5,760.833 658.5,748.5C 659.5,748.167 660.167,747.5 660.5,746.5C 754.167,674.5 847.833,602.5 941.5,530.5C 960.12,529.526 978.787,529.192 997.5,529.5C 997.333,602.167 997.5,674.834 998,747.5C 1012.42,748.49 1026.92,748.824 1041.5,748.5 Z"/></g>
<g><path style="opacity:1" fill="#eb5051" d="M 998.5,528.5 C 999.499,601.331 999.833,674.331 999.5,747.5C 1013.68,747.171 1027.68,747.504 1041.5,748.5C 1026.92,748.824 1012.42,748.49 998,747.5C 997.5,674.834 997.333,602.167 997.5,529.5C 978.787,529.192 960.12,529.526 941.5,530.5C 941.611,529.883 941.944,529.383 942.5,529C 961.164,528.5 979.83,528.333 998.5,528.5 Z"/></g>
<g><path style="opacity:1" fill="#fbf6f5" d="M 941.5,519.5 C 941.953,520.458 942.619,521.292 943.5,522C 943.112,523.525 943.112,525.192 943.5,527C 962.005,527.168 980.338,527.668 998.5,528.5C 979.83,528.333 961.164,528.5 942.5,529C 941.944,529.383 941.611,529.883 941.5,530.5C 847.833,602.5 754.167,674.5 660.5,746.5C 657.27,745.272 655.604,742.939 655.5,739.5C 750.524,665.815 845.857,592.481 941.5,519.5 Z"/></g>
<g><path style="opacity:1" fill="#fefefd" d="M 943.5,584.5 C 942.501,638.664 942.168,692.997 942.5,747.5C 871.331,747.833 800.331,747.499 729.5,746.5C 799.982,692.197 870.648,638.03 941.5,584C 942.437,583.308 943.103,583.475 943.5,584.5 Z"/></g>
<g><path style="opacity:0.213" fill="#f9f9fb" d="M 1045.5,381.5 C 1047.01,383.476 1047.84,385.809 1048,388.5C 1048.17,462.07 1048.67,535.57 1049.5,609C 1048.84,622.427 1048.5,635.927 1048.5,649.5C 1048.37,664.218 1048.87,678.885 1050,693.5C 1053.08,698.919 1056.58,704.086 1060.5,709C 1098.11,734.945 1135.44,761.278 1172.5,788C 1179.06,795.239 1186.73,800.905 1195.5,805C 1196.79,807.292 1198.46,809.292 1200.5,811C 1207.83,816 1215.17,821 1222.5,826C 1225.21,828.371 1227.54,831.037 1229.5,834C 1234.99,835.496 1238.32,838.996 1239.5,844.5C 1176.86,799.843 1114.2,755.176 1051.5,710.5C 1050.17,709.167 1048.83,707.833 1047.5,706.5C 1047.22,705.711 1046.72,705.044 1046,704.5C 1045.5,596.834 1045.33,489.167 1045.5,381.5 Z"/></g>
<g><path style="opacity:0.164" fill="#f5f5fa" d="M 534.5,379.5 C 534.5,491.5 534.5,603.5 534.5,715.5C 481.5,758.167 428.5,800.833 375.5,843.5C 378.549,837.923 381.882,832.423 385.5,827C 393.749,821.422 401.416,815.088 408.5,808C 417.363,802.809 425.363,796.476 432.5,789C 442.028,781.972 451.695,775.139 461.5,768.5C 467.059,762.387 473.393,757.22 480.5,753C 486.292,745.878 493.292,740.211 501.5,736C 504.472,731.368 508.472,727.701 513.5,725C 515.963,721.535 518.796,718.369 522,715.5C 523.333,712.167 524.667,708.833 526,705.5C 527.912,703.343 529.579,701.009 531,698.5C 532.131,649.682 532.631,600.848 532.5,552C 532.333,507.833 532.167,463.667 532,419.5C 531.771,409.644 531.271,399.811 530.5,390C 531.099,386.771 531.932,383.604 533,380.5C 533.383,379.944 533.883,379.611 534.5,379.5 Z"/></g>
<g><path style="opacity:1" fill="#fefefd" d="M 655.5,739.5 C 655.604,742.939 657.27,745.272 660.5,746.5C 660.167,747.5 659.5,748.167 658.5,748.5C 657.505,760.989 657.171,773.656 657.5,786.5C 752.5,786.5 847.5,786.5 942.5,786.5C 942.5,796.5 942.5,806.5 942.5,816.5C 847.332,816.167 752.332,816.501 657.5,817.5C 657.5,824.5 657.5,831.5 657.5,838.5C 752.5,838.5 847.5,838.5 942.5,838.5C 942.5,845.167 942.5,851.833 942.5,858.5C 847.332,858.167 752.332,858.501 657.5,859.5C 657.5,864.833 657.5,870.167 657.5,875.5C 752.5,875.5 847.5,875.5 942.5,875.5C 942.5,885.167 942.5,894.833 942.5,904.5C 847.332,904.167 752.332,904.501 657.5,905.5C 657.333,918.171 657.5,930.838 658,943.5C 658.995,944.066 659.828,944.733 660.5,945.5C 660.259,949.083 658.592,950.749 655.5,950.5C 656.729,951.281 658.062,951.781 659.5,952C 657.744,952.202 656.078,952.702 654.5,953.5C 656.925,954.649 656.925,955.316 654.5,955.5C 650.875,953.679 647.542,951.345 644.5,948.5C 643.274,890.832 643.274,833.165 644.5,775.5C 645.33,766.342 645.83,757.009 646,747.5C 646.717,746.956 647.217,746.289 647.5,745.5C 649.86,743.147 652.527,741.147 655.5,739.5 Z"/></g>
<g><path style="opacity:1" fill="#f17e88" d="M 943.5,584.5 C 943.5,639.167 943.5,693.833 943.5,748.5C 871.83,748.833 800.164,748.5 728.5,747.5C 728.624,746.893 728.957,746.56 729.5,746.5C 800.331,747.499 871.331,747.833 942.5,747.5C 942.168,692.997 942.501,638.664 943.5,584.5 Z"/></g>
<g><path style="opacity:1" fill="#f8bfbb" d="M 647.5,745.5 C 647.217,746.289 646.717,746.956 646,747.5C 645.83,757.009 645.33,766.342 644.5,775.5C 644.334,765.828 644.5,756.161 645,746.5C 645.671,745.748 646.504,745.414 647.5,745.5 Z"/></g>
<g><path style="opacity:1" fill="#eb4453" d="M 658.5,748.5 C 658.5,760.833 658.5,773.167 658.5,785.5C 753.335,785.167 848.001,785.501 942.5,786.5C 847.5,786.5 752.5,786.5 657.5,786.5C 657.171,773.656 657.505,760.989 658.5,748.5 Z"/></g>
<g><path style="opacity:1" fill="#fefcfb" d="M 999.5,786.5 C 1009.19,786.168 1018.86,786.502 1028.5,787.5C 1038.93,797.598 1049.26,807.598 1059.5,817.5C 1039.5,817.5 1019.5,817.5 999.5,817.5C 999.5,807.167 999.5,796.833 999.5,786.5 Z"/></g>
<g><path style="opacity:1" fill="#fefdfc" d="M 586.5,792.5 C 587.665,831.331 587.831,870.331 587,909.5C 586.617,908.944 586.117,908.611 585.5,908.5C 562.893,888.896 540.893,868.563 519.5,847.5C 541.641,828.93 563.974,810.597 586.5,792.5 Z"/></g>
<g><path style="opacity:1" fill="#ef6873" d="M 586.5,792.5 C 586.56,791.957 586.893,791.624 587.5,791.5C 588.5,831.161 588.833,870.828 588.5,910.5C 586.821,910.715 585.821,910.048 585.5,908.5C 586.117,908.611 586.617,908.944 587,909.5C 587.831,870.331 587.665,831.331 586.5,792.5 Z"/></g>
<g><path style="opacity:1" fill="#fbe2d8" d="M 942.5,786.5 C 943.494,796.653 943.828,806.986 943.5,817.5C 848.5,817.5 753.5,817.5 658.5,817.5C 658.167,817.5 657.833,817.5 657.5,817.5C 752.332,816.501 847.332,816.167 942.5,816.5C 942.5,806.5 942.5,796.5 942.5,786.5 Z"/></g>
<g><path style="opacity:1" fill="#ed4d51" d="M 999.5,786.5 C 999.5,796.833 999.5,807.167 999.5,817.5C 1019.5,817.5 1039.5,817.5 1059.5,817.5C 1039.34,818.497 1019.01,818.83 998.5,818.5C 998.172,807.654 998.506,796.987 999.5,786.5 Z"/></g>
<g><path style="opacity:0.973" fill="#303191" d="M 1051.5,710.5 C 1114.2,755.176 1176.86,799.843 1239.5,844.5C 1241.01,846.181 1242.01,848.181 1242.5,850.5C 1228.19,860.325 1213.86,870.158 1199.5,880C 1153.46,914.342 1107.12,948.176 1060.5,981.5C 1060.15,979.459 1060.15,977.626 1060.5,976C 1059.26,975.544 1058.42,976.044 1058,977.5C 1055.71,975.094 1053.04,974.428 1050,975.5C 1047.89,973.7 1045.39,972.7 1042.5,972.5C 1099.43,931.578 1156.1,890.245 1212.5,848.5C 1153.5,805.835 1094.5,763.168 1035.5,720.5C 1039.12,721.026 1042.12,722.693 1044.5,725.5C 1047.17,724.501 1047.84,722.834 1046.5,720.5C 1047.32,719.614 1048.32,719.281 1049.5,719.5C 1049.37,717.8 1048.71,716.3 1047.5,715C 1047.83,714.5 1048.17,714 1048.5,713.5C 1050.83,715.167 1052.83,717.167 1054.5,719.5C 1055.45,717.955 1055.79,716.288 1055.5,714.5C 1052.86,714.512 1051.52,713.179 1051.5,710.5 Z"/></g>
<g><path style="opacity:1" fill="#e96d79" d="M 657.5,817.5 C 657.833,817.5 658.167,817.5 658.5,817.5C 658.5,824.167 658.5,830.833 658.5,837.5C 753.668,837.167 848.668,837.501 943.5,838.5C 943.167,838.5 942.833,838.5 942.5,838.5C 847.5,838.5 752.5,838.5 657.5,838.5C 657.5,831.5 657.5,824.5 657.5,817.5 Z"/></g>
<g><path style="opacity:1" fill="#f1868e" d="M 1145.5,836.5 C 1146.38,836.369 1147.04,836.702 1147.5,837.5C 1098.17,838.5 1048.84,838.833 999.5,838.5C 1048.17,837.833 1096.83,837.167 1145.5,836.5 Z"/></g>
<g><path style="opacity:1" fill="#f6b2b2" d="M 942.5,838.5 C 942.833,838.5 943.167,838.5 943.5,838.5C 943.5,845.5 943.5,852.5 943.5,859.5C 848.5,859.5 753.5,859.5 658.5,859.5C 658.167,859.5 657.833,859.5 657.5,859.5C 752.332,858.501 847.332,858.167 942.5,858.5C 942.5,851.833 942.5,845.167 942.5,838.5 Z"/></g>
<g><path style="opacity:1" fill="#f5a6a9" d="M 999.5,858.5 C 1048.5,858.167 1097.5,858.5 1146.5,859.5C 1146.38,860.107 1146.04,860.44 1145.5,860.5C 1096.83,859.833 1048.17,859.167 999.5,858.5 Z"/></g>
<g><path style="opacity:1" fill="#f69b9c" d="M 657.5,859.5 C 657.833,859.5 658.167,859.5 658.5,859.5C 658.5,864.5 658.5,869.5 658.5,874.5C 753.5,874.5 848.5,874.5 943.5,874.5C 943.5,884.833 943.5,895.167 943.5,905.5C 848.167,905.5 752.833,905.5 657.5,905.5C 752.332,904.501 847.332,904.167 942.5,904.5C 942.5,894.833 942.5,885.167 942.5,875.5C 847.5,875.5 752.5,875.5 657.5,875.5C 657.5,870.167 657.5,864.833 657.5,859.5 Z"/></g>
<g><path style="opacity:1" fill="#ef928e" d="M 1059.5,876.5 C 1039.67,875.503 1019.67,875.17 999.5,875.5C 999.5,884.833 999.5,894.167 999.5,903.5C 998.506,894.014 998.173,884.348 998.5,874.5C 1019.18,874.167 1039.84,874.5 1060.5,875.5C 1060.38,876.107 1060.04,876.44 1059.5,876.5 Z"/></g>
<g><path style="opacity:1" fill="#fefdfd" d="M 1059.5,876.5 C 1049.53,884.8 1040.2,893.8 1031.5,903.5C 1020.88,904.454 1010.22,904.787 999.5,904.5C 999.5,904.167 999.5,903.833 999.5,903.5C 999.5,894.167 999.5,884.833 999.5,875.5C 1019.67,875.17 1039.67,875.503 1059.5,876.5 Z"/></g>
<g><path style="opacity:1" fill="#faa2a8" d="M 1031.5,903.5 C 1031.39,904.117 1031.06,904.617 1030.5,905C 1019.99,905.825 1009.66,905.659 999.5,904.5C 1010.22,904.787 1020.88,904.454 1031.5,903.5 Z"/></g>
<g><path style="opacity:0.239" fill="#f6f7fa" d="M 375.5,843.5 C 375.33,844.822 375.663,845.989 376.5,847C 429.065,889.743 481.732,932.243 534.5,974.5C 534.5,1091.17 534.5,1207.83 534.5,1324.5C 533.778,1324.08 533.278,1323.42 533,1322.5C 532.79,1317.22 531.956,1312.06 530.5,1307C 531.663,1201.86 531.83,1096.69 531,991.5C 529.617,984.174 526.784,977.507 522.5,971.5C 478.265,935.419 433.931,899.586 389.5,864C 384.499,861.196 379.999,857.696 376,853.5C 374.424,850.074 374.258,846.74 375.5,843.5 Z"/></g>
<g><path style="opacity:0.986" fill="#2e3091" d="M 1042.5,379.5 C 1043.49,379.328 1044.16,379.662 1044.5,380.5C 1044.33,488.834 1044.5,597.167 1045,705.5C 1045.67,706.252 1046.5,706.586 1047.5,706.5C 1048.83,707.833 1050.17,709.167 1051.5,710.5C 1051.52,713.179 1052.86,714.512 1055.5,714.5C 1055.79,716.288 1055.45,717.955 1054.5,719.5C 1052.83,717.167 1050.83,715.167 1048.5,713.5C 1048.17,714 1047.83,714.5 1047.5,715C 1048.71,716.3 1049.37,717.8 1049.5,719.5C 1048.32,719.281 1047.32,719.614 1046.5,720.5C 1047.84,722.834 1047.17,724.501 1044.5,725.5C 1042.12,722.693 1039.12,721.026 1035.5,720.5C 1033.23,719.559 1031.23,718.226 1029.5,716.5C 1029.28,715.325 1029.61,714.325 1030.5,713.5C 1038.39,712.198 1038.39,711.532 1030.5,711.5C 1030.83,607.498 1030.5,503.498 1029.5,399.5C 1028.71,398.23 1027.71,397.23 1026.5,396.5C 868.5,396.5 710.5,396.5 552.5,396.5C 552.5,397.5 552.5,398.5 552.5,399.5C 552.667,507.501 552.5,615.501 552,723.5C 551.283,724.044 550.783,724.711 550.5,725.5C 501.308,764.929 452.308,804.596 403.5,844.5C 452.538,884.872 501.871,924.872 551.5,964.5C 552.498,1078.43 552.831,1192.43 552.5,1306.5C 710.5,1306.5 868.5,1306.5 1026.5,1306.5C 1027.91,1306.03 1028.57,1305.03 1028.5,1303.5C 1030.33,1196.84 1031.17,1089.84 1031,982.5C 1033.5,983.598 1036,983.432 1038.5,982C 1037.5,981.167 1036.5,980.333 1035.5,979.5C 1036.83,978.358 1037.83,977.024 1038.5,975.5C 1039.83,974.5 1041.17,973.5 1042.5,972.5C 1045.39,972.7 1047.89,973.7 1050,975.5C 1053.04,974.428 1055.71,975.094 1058,977.5C 1058.42,976.044 1059.26,975.544 1060.5,976C 1060.15,977.626 1060.15,979.459 1060.5,981.5C 1055.95,984.603 1051.61,987.936 1047.5,991.5C 1045.97,991.427 1044.97,992.094 1044.5,993.5C 1043.5,1103.33 1043.17,1213.33 1043.5,1323.5C 1042.5,1323.5 1041.5,1323.5 1040.5,1323.5C 872.167,1323.5 703.833,1323.5 535.5,1323.5C 535.833,1207 535.5,1090.67 534.5,974.5C 481.732,932.243 429.065,889.743 376.5,847C 375.663,845.989 375.33,844.822 375.5,843.5C 428.5,800.833 481.5,758.167 534.5,715.5C 535.5,603.668 535.833,491.668 535.5,379.5C 704.5,379.5 873.5,379.5 1042.5,379.5 Z"/></g>
<g><path style="opacity:1" fill="#eb6f78" d="M 645.5,647.5 C 644.85,662.538 645.517,677.205 647.5,691.5C 646.791,692.404 645.791,692.737 644.5,692.5C 644.171,677.324 644.504,662.324 645.5,647.5 Z"/></g>
<g><path style="opacity:1" fill="#f3cad2" d="M 903.5,463.5 C 913.522,463.168 923.522,463.501 933.5,464.5C 933.376,465.107 933.043,465.44 932.5,465.5C 922.833,464.833 913.167,464.167 903.5,463.5 Z"/></g>
<g><path style="opacity:1" fill="#fefefe" d="M 903.5,463.5 C 913.167,464.167 922.833,464.833 932.5,465.5C 837.5,540.833 742.5,616.167 647.5,691.5C 645.517,677.205 644.85,662.538 645.5,647.5C 645.5,585.167 645.5,522.833 645.5,460.5C 731.497,461.727 817.497,462.727 903.5,463.5 Z"/></g>
<g><path style="opacity:1" fill="#2e318e" d="M 1026.5,396.5 C 1027.71,397.23 1028.71,398.23 1029.5,399.5C 1030.5,503.498 1030.83,607.498 1030.5,711.5C 1038.39,711.532 1038.39,712.198 1030.5,713.5C 1029.61,714.325 1029.28,715.325 1029.5,716.5C 1028.5,715.833 1027.5,715.167 1026.5,714.5C 1026.5,608.5 1026.5,502.5 1026.5,396.5 Z"/></g>
<g><path style="opacity:1" fill="#d5ddf2" d="M 552.5,399.5 C 552.833,399.5 553.167,399.5 553.5,399.5C 553.667,507.834 553.5,616.167 553,724.5C 552.329,725.252 551.496,725.586 550.5,725.5C 550.783,724.711 551.283,724.044 552,723.5C 552.5,615.501 552.667,507.501 552.5,399.5 Z"/></g>
<g><path style="opacity:1" fill="#c7cced" d="M 1026.5,396.5 C 1026.5,502.5 1026.5,608.5 1026.5,714.5C 1025.5,609.001 1025.17,503.335 1025.5,397.5C 867.83,396.835 710.496,397.501 553.5,399.5C 553.167,399.5 552.833,399.5 552.5,399.5C 552.5,398.5 552.5,397.5 552.5,396.5C 710.5,396.5 868.5,396.5 1026.5,396.5 Z"/></g>
<g><path style="opacity:1" fill="#2c308a" d="M 558.5,392.5 C 713.501,392.167 868.501,392.5 1023.5,393.5C 946,393.833 868.5,394.167 791,394.5C 713.164,394.5 635.664,393.833 558.5,392.5 Z"/></g>
<g><path style="opacity:1" fill="#ec7681" d="M 943.5,942.5 C 943.167,942.5 942.833,942.5 942.5,942.5C 869.998,942.167 797.665,942.501 725.5,943.5C 724.957,943.44 724.624,943.107 724.5,942.5C 797.666,941.168 870.666,941.168 943.5,942.5 Z"/></g>
<g><path style="opacity:1" fill="#fefefe" d="M 725.5,943.5 C 797.665,942.501 869.998,942.167 942.5,942.5C 942.832,999.336 942.499,1056 941.5,1112.5C 869.099,1056.64 797.099,1000.3 725.5,943.5 Z"/></g>
<g><path style="opacity:1" fill="#f1a1ab" d="M 942.5,942.5 C 942.833,942.5 943.167,942.5 943.5,942.5C 943.833,999.837 943.5,1057.17 942.5,1114.5C 941.702,1114.04 941.369,1113.38 941.5,1112.5C 942.499,1056 942.832,999.336 942.5,942.5 Z"/></g>
<g><path style="opacity:1" fill="#35378d" d="M 1026.5,983.5 C 1026.83,983.5 1027.17,983.5 1027.5,983.5C 1027.17,1090.33 1027.5,1197 1028.5,1303.5C 1028.57,1305.03 1027.91,1306.03 1026.5,1306.5C 1026.5,1198.83 1026.5,1091.17 1026.5,983.5 Z"/></g>
<g><path style="opacity:1" fill="#2c308d" d="M 1038.5,975.5 C 1037.83,977.024 1036.83,978.358 1035.5,979.5C 1036.5,980.333 1037.5,981.167 1038.5,982C 1036,983.432 1033.5,983.598 1031,982.5C 1031.17,1089.84 1030.33,1196.84 1028.5,1303.5C 1027.5,1197 1027.17,1090.33 1027.5,983.5C 1030.95,980.601 1034.62,977.934 1038.5,975.5 Z"/></g>
<g><path style="opacity:0.482" fill="#e8eefa" d="M 1047.5,991.5 C 1047.22,992.289 1046.72,992.956 1046,993.5C 1045.83,1104 1045.33,1214.33 1044.5,1324.5C 1044.5,1214.17 1044.5,1103.83 1044.5,993.5C 1044.97,992.094 1045.97,991.427 1047.5,991.5 Z"/></g>
<g><path style="opacity:1" fill="#fbf7f6" d="M 660.5,945.5 C 754.167,1017.18 847.5,1089.18 940.5,1161.5C 938.287,1161.85 936.287,1162.68 934.5,1164C 935.167,1165.33 936.167,1166.33 937.5,1167C 937.167,1167.33 936.833,1167.67 936.5,1168C 940.569,1169.24 943.569,1171.74 945.5,1175.5C 847.934,1102.94 750.934,1029.6 654.5,955.5C 656.925,955.316 656.925,954.649 654.5,953.5C 656.078,952.702 657.744,952.202 659.5,952C 658.062,951.781 656.729,951.281 655.5,950.5C 658.592,950.749 660.259,949.083 660.5,945.5 Z"/></g>
<g><path style="opacity:0.62" fill="#4f5197" d="M 1044.5,993.5 C 1044.5,1103.83 1044.5,1214.17 1044.5,1324.5C 1043.17,1324.5 1041.83,1324.5 1040.5,1324.5C 1040.5,1324.17 1040.5,1323.83 1040.5,1323.5C 1041.5,1323.5 1042.5,1323.5 1043.5,1323.5C 1043.17,1213.33 1043.5,1103.33 1044.5,993.5 Z"/></g>
<g><path style="opacity:1" fill="#d0d6f1" d="M 551.5,964.5 C 553.498,1077.83 554.165,1191.5 553.5,1305.5C 710.833,1305.5 868.167,1305.5 1025.5,1305.5C 1025.17,1198 1025.5,1090.67 1026.5,983.5C 1026.5,1091.17 1026.5,1198.83 1026.5,1306.5C 868.5,1306.5 710.5,1306.5 552.5,1306.5C 552.831,1192.43 552.498,1078.43 551.5,964.5 Z"/></g>
<g><path style="opacity:1" fill="#f59499" d="M 587.5,1215.5 C 587.5,1233.5 587.5,1251.5 587.5,1269.5C 615.5,1269.5 643.5,1269.5 671.5,1269.5C 643.338,1270.5 615.005,1270.83 586.5,1270.5C 586.17,1251.99 586.503,1233.66 587.5,1215.5 Z"/></g>
<g><path style="opacity:1" fill="#f48f95" d="M 996.5,1215.5 C 997.497,1232.99 997.83,1250.66 997.5,1268.5C 958.167,1268.5 918.833,1268.5 879.5,1268.5C 918.33,1267.5 957.33,1267.17 996.5,1267.5C 996.5,1250.17 996.5,1232.83 996.5,1215.5 Z"/></g>
<g><path style="opacity:1" fill="#e94855" d="M 934.5,1225.5 C 937.173,1225.68 937.84,1226.85 936.5,1229C 839.332,1229.83 742.332,1229.67 645.5,1228.5C 715.5,1228.5 785.5,1228.5 855.5,1228.5C 882.175,1228.83 908.842,1228.5 935.5,1227.5C 935.137,1226.82 934.804,1226.15 934.5,1225.5 Z"/></g>
<g><path style="opacity:1" fill="#fdd6d6" d="M 933.5,1225.5 C 933.833,1225.5 934.167,1225.5 934.5,1225.5C 934.804,1226.15 935.137,1226.82 935.5,1227.5C 908.842,1228.5 882.175,1228.83 855.5,1228.5C 881.683,1228.16 907.683,1227.16 933.5,1225.5 Z"/></g>
<g><path style="opacity:1" fill="#f6b7c2" d="M 649.5,1007.5 C 648.833,1018.17 648.167,1028.83 647.5,1039.5C 647.168,1028.48 647.501,1017.48 648.5,1006.5C 649.107,1006.62 649.44,1006.96 649.5,1007.5 Z"/></g>
<g><path style="opacity:1" fill="#fefefe" d="M 649.5,1007.5 C 744.421,1079.74 839.088,1152.41 933.5,1225.5C 907.683,1227.16 881.683,1228.16 855.5,1228.5C 785.5,1228.5 715.5,1228.5 645.5,1228.5C 645.765,1165.49 646.432,1102.49 647.5,1039.5C 648.167,1028.83 648.833,1018.17 649.5,1007.5 Z"/></g>
<g><path style="opacity:1" fill="#2c318b" d="M 558.5,1308.5 C 713.501,1308.17 868.501,1308.5 1023.5,1309.5C 946,1309.83 868.5,1310.17 791,1310.5C 713.164,1310.5 635.664,1309.83 558.5,1308.5 Z"/></g>
<g><path style="opacity:0.379" fill="#fdfdfd" d="M 1242.5,850.5 C 1242.7,852.989 1242.2,855.323 1241,857.5C 1228.3,870.188 1214.14,881.021 1198.5,890C 1193.24,895.926 1186.91,900.26 1179.5,903C 1175.72,906.78 1171.38,909.78 1166.5,912C 1156.13,919.519 1146.13,927.519 1136.5,936C 1122.07,944.401 1108.4,954.068 1095.5,965C 1083.85,972.16 1072.52,979.826 1061.5,988C 1058.79,991.922 1055.96,995.756 1053,999.5C 1050.19,1006.02 1049.36,1012.68 1050.5,1019.5C 1050.47,1023.24 1049.97,1026.9 1049,1030.5C 1048.17,1122.87 1048.34,1215.21 1049.5,1307.5C 1048.12,1312.39 1047.29,1317.39 1047,1322.5C 1046.64,1324.42 1045.81,1326.09 1044.5,1327.5C 1040.39,1329.57 1036.06,1330.91 1031.5,1331.5C 968.874,1330.84 906.207,1330.5 843.5,1330.5C 747.436,1330.35 651.436,1331.01 555.5,1332.5C 550.833,1332.33 546.167,1332.17 541.5,1332C 537.696,1330.79 535.362,1328.29 534.5,1324.5C 703.167,1324.5 871.833,1324.5 1040.5,1324.5C 1041.83,1324.5 1043.17,1324.5 1044.5,1324.5C 1045.33,1214.33 1045.83,1104 1046,993.5C 1046.72,992.956 1047.22,992.289 1047.5,991.5C 1051.61,987.936 1055.95,984.603 1060.5,981.5C 1107.12,948.176 1153.46,914.342 1199.5,880C 1213.86,870.158 1228.19,860.325 1242.5,850.5 Z"/></g>
<g><path style="opacity:0.92" fill="#454597" d="M 534.5,974.5 C 535.5,1090.67 535.833,1207 535.5,1323.5C 703.833,1323.5 872.167,1323.5 1040.5,1323.5C 1040.5,1323.83 1040.5,1324.17 1040.5,1324.5C 871.833,1324.5 703.167,1324.5 534.5,1324.5C 534.5,1207.83 534.5,1091.17 534.5,974.5 Z"/></g>
</svg>
